<svg xmlns="http://www.w3.org/2000/svg" viewBox="0 0 100 94.378"><defs><style>.a{fill:#ededed;}.b{fill:#127c12;}</style></defs><g transform="translate(-1459 -472)"><path class="a" d="M7.3,23.657l3.916,3.665h80.12V56.539h5.472V21.8H7.3Z" transform="translate(1455.365 461.144)"/><path class="b" d="M100,72.088l-4.97-3.112V10.944a1.8,1.8,0,0,0-1.807-1.807H60.341V1.807A1.8,1.8,0,0,0,58.534,0H36.546a1.8,1.8,0,0,0-1.807,1.807V9.137H1.506A1.835,1.835,0,0,0,0,10.944V80.371a1.8,1.8,0,0,0,1.807,1.807H67.018l3.665,2.259.8,6.024,6.074-.452,4.217,4.367,4.669-3.916,5.974,1.054,1.456-5.924,5.472-2.661-2.309-5.622ZM91.365,45.683h-12.8V36.546H74.9V12.8H91.365ZM38.353,3.665H56.627V9.137H38.353ZM71.235,12.8V36.546H67.57v9.137H27.41V36.546H23.745V12.8ZM74.9,40.211v7.681a1.457,1.457,0,0,1-1.456,1.456h-.753a1.457,1.457,0,0,1-1.456-1.456V40.211ZM3.665,12.8H20.08V36.546H16.416v9.137H3.665Zm20.08,27.41v7.681a1.457,1.457,0,0,1-1.456,1.456h-.753a1.457,1.457,0,0,1-1.456-1.456V40.211ZM67.018,78.564H3.665V49.347h13a5.166,5.166,0,0,0,4.92,3.665h.753a5.166,5.166,0,0,0,4.92-3.665H67.871a5.166,5.166,0,0,0,4.92,3.665h.753a5.166,5.166,0,0,0,4.92-3.665h12.9v13.7l-3.414.251-4.217-4.367-4.669,3.916L73.092,61.8l-1.456,5.873-5.472,2.661,2.309,5.622Zm28.012-4.92-1.807,3.665,1.657,4.066-1.807.954-2.008.954L90.01,87.5l-4.317-.753-3.514,2.811L79.167,86.4l-4.367.3-.6-4.468h-.151L70.382,80.02l.753-1.456,1.305-2.41-1.657-4.016,3.966-1.807L75.8,66.114l4.317.753,3.414-2.861,3.012,3.163,4.367-.3.5,3.715v.552l3.665,2.209h.151Z" transform="translate(1459 472)"/></g></svg>