<svg xmlns="http://www.w3.org/2000/svg" viewBox="0 0 100 103.864"><defs><style>.a{fill:#ededed;}.b{fill:#127c12;}</style></defs><g transform="translate(-917 -476)"><path class="a" d="M3.6,3.6v6.429H92.963V51.876l6.371,2.805V3.6Z" transform="translate(915.504 474.504)"/><path class="b" d="M63.822,21.274H12.741V17.008H63.822ZM42.548,27.645H12.741v4.267H42.548Zm0,10.637H12.741v4.267H42.548ZM100,2.1V70.193a2.1,2.1,0,0,1-2.1,2.1H92.811a2.076,2.076,0,0,1-.818,2.1L88.837,76.68l.175,3.916a2.083,2.083,0,0,1-1.753,2.1l-3.8.7-.409.994v17.3A2.064,2.064,0,0,1,82,103.507a2.417,2.417,0,0,1-1.11.292,1.921,1.921,0,0,1-.994-.234l-8.533-4.734-8.533,4.734a2.153,2.153,0,0,1-2.922-.7,2.417,2.417,0,0,1-.292-1.11v-17.3l-.409-.935-3.857-.7a2.127,2.127,0,0,1-1.753-2.1L53.77,76.8l-3.156-2.338a2.119,2.119,0,0,1-.818-2.1H2.1a2.1,2.1,0,0,1-2.1-2.1V2.1A2.1,2.1,0,0,1,2.1,0H97.838A2.146,2.146,0,0,1,100,2.1ZM78.726,88.136l-3.156-.877-2.922,2.572a2.133,2.133,0,0,1-2.805,0L66.92,87.259l-3.156.877V98.188l6.371-3.565a1.957,1.957,0,0,1,2.1,0l6.371,3.565V88.136ZM87.61,72.3l.292-.234-1.52-2.805a1.8,1.8,0,0,1-.234-1.227,1.658,1.658,0,0,1,.234-.76l1.52-2.805-2.572-1.87a2.045,2.045,0,0,1-.877-1.812l.175-3.156L81.473,57.1a2.124,2.124,0,0,1-1.578-1.227l-1.227-2.922-3.039.877a2.211,2.211,0,0,1-1.987-.468l-2.4-2.1-2.4,2.1a2.211,2.211,0,0,1-1.987.468l-3.156-.877-1.227,2.922A2.124,2.124,0,0,1,60.9,57.1l-3.039.526.175,3.156a2.045,2.045,0,0,1-.877,1.812l-2.572,1.87,1.52,2.805a1.9,1.9,0,0,1,.234.76,1.8,1.8,0,0,1-.234,1.227l-1.52,2.805.292.234,2.279,1.636a2.045,2.045,0,0,1,.877,1.812L57.861,78.9l1.636.292,1.461.292a2.124,2.124,0,0,1,1.578,1.227l1.227,2.805h0l3.039-.877h.584a2.094,2.094,0,0,1,1.4.526l2.4,2.1,2.4-2.1A2.211,2.211,0,0,1,75.57,82.7l3.039.877h0l1.286-2.805a2.124,2.124,0,0,1,1.578-1.227l1.461-.292,1.636-.292L84.4,75.8a2.045,2.045,0,0,1,.877-1.812Zm8.124-68.03H4.267V68.089H51.724l-1.695-3.214a2.121,2.121,0,0,1,.643-2.747l3.156-2.279-.175-3.916a2.083,2.083,0,0,1,1.753-2.1l3.857-.7,1.52-3.565A2.111,2.111,0,0,1,63.3,48.334l3.741,1.052,2.922-2.63a2.133,2.133,0,0,1,2.805,0l2.922,2.572,3.741-1.052A2.083,2.083,0,0,1,81.94,49.5l1.52,3.624,3.8.7a2.127,2.127,0,0,1,1.753,2.1l-.175,3.916,3.156,2.279a2.187,2.187,0,0,1,.643,2.747l-1.695,3.214H95.85V4.267ZM78.726,69.141A7.423,7.423,0,1,0,71.3,76.563,7.433,7.433,0,0,0,78.726,69.141Zm-4.267,0a3.205,3.205,0,0,1-3.214,3.214,3.214,3.214,0,1,1,0-6.429A3.205,3.205,0,0,1,74.459,69.141Z" transform="translate(917 476)"/></g></svg>