<svg xmlns="http://www.w3.org/2000/svg" viewBox="0 0 162.094 183.832"><defs><style>.a{fill:#264de4;}.b{fill:#2965f1;}.c{fill:#ebebeb;}.d{fill:#fff;}</style></defs><path class="a" d="M155.581,284.452l-66.2-18.376L74.633,100.62H236.727L221.959,266.049Z" transform="translate(-74.633 -100.62)"/><path class="b" d="M309.637,272.261l12.62-141.367H256V287.131Z" transform="translate(-174.953 -117.366)"/><path class="c" d="M150.31,268.217l1.819,20.292h45.411V268.217Z" transform="translate(-116.493 -193.323)"/><path class="c" d="M142.132,176.305l1.845,20.293h49.039V176.305H142.132Z" transform="translate(-111.969 -142.484)"/><path class="c" d="M200.913,358.6l-.089.024-22.6-6.1-1.445-16.184h-20.37l2.843,31.862,41.567,11.539.093-.026Z" transform="translate(-119.866 -231.001)"/><path class="d" d="M303.012,217.377l3.663-41.072H255.843V196.6h28.594l-1.846,20.78H255.843V237.67h24.988l-2.355,26.318L255.843,270.1v21.112l41.6-11.53.305-3.428,4.768-53.423Z" transform="translate(-174.866 -142.484)"/></svg>