<svg xmlns="http://www.w3.org/2000/svg" xmlns:xlink="http://www.w3.org/1999/xlink" viewBox="0 0 184.922 175.163"><defs><style>.a{fill:url(#a);}.b{fill:url(#b);}.c{fill:url(#c);}.d{fill:url(#d);}.e{fill:url(#e);}.f{fill:url(#f);}</style><linearGradient id="a" x1="-0.826" y1="-0.928" x2="1.038" y2="1.06" gradientUnits="objectBoundingBox"><stop offset="0" stop-color="#f9a03c"/><stop offset="1" stop-color="#f7974e"/></linearGradient><linearGradient id="b" x1="-2.589" y1="-2.49" x2="0.976" y2="0.988" xlink:href="#a"/><linearGradient id="c" x1="-2.232" y1="-2.62" x2="0.94" y2="1.017" xlink:href="#a"/><linearGradient id="d" x1="0.113" y1="-0.018" x2="0.825" y2="0.921" gradientUnits="objectBoundingBox"><stop offset="0" stop-color="#f26d58"/><stop offset="1" stop-color="#f9a03c"/></linearGradient><linearGradient id="e" x1="0.158" y1="0.039" x2="1.201" y2="0.724" gradientUnits="objectBoundingBox"><stop offset="0" stop-color="#b84e51"/><stop offset="1" stop-color="#f68e48"/></linearGradient><linearGradient id="f" x1="0.47" y1="0.235" x2="0.519" y2="1.474" xlink:href="#a"/></defs><path class="a" d="M232.708,153.087c.083-.806.142-1.619.189-2.436.056-.968-58.213-56.254-58.213-56.254h-1.393s59.061,62.3,59.417,58.689Z" transform="translate(-48.074 -26.187)"/><path class="b" d="M83.251,149.045c-.077.17-.154.34-.233.509s-.168.355-.252.53c-1.858,3.873,26,31.109,28.244,27.8.1-.146.2-.3.306-.447.113-.173.225-.34.337-.513,1.792-2.721-27.607-29.649-28.4-27.88Z" transform="translate(-22.936 -41.324)"/><path class="c" d="M137.515,202.083a7.772,7.772,0,0,1-1.152,1.622c-.087.173,27.2,27.233,27.2,27.233h2.457s-25.613-27.71-28.5-28.855Z" transform="translate(-37.829 -56.061)"/><path class="d" d="M184.862,123.972a53.393,53.393,0,0,1-53.269,50.9h-3.866L99.175,146.748a102.331,102.331,0,0,0,6.476-10.322h25.942a14.882,14.882,0,0,0,0-29.763H116.241a102.551,102.551,0,0,0,1.809-19.082,102.123,102.123,0,0,0-1.863-19.371h9.536l58.971,58.106c.069-.779.125-1.557.168-2.343ZM15.512,0H0V38.451H15.512a49.188,49.188,0,0,1,49.136,49.13,48.851,48.851,0,0,1-4.565,20.649l28.3,27.885A87.063,87.063,0,0,0,103.1,87.581,87.687,87.687,0,0,0,15.512,0Z"/><path class="e" d="M158,0H95.187a103.228,103.228,0,0,1,36.7,38.451H158a14.88,14.88,0,1,1,0,29.761h-5.867l58.97,58.105c.139-1.576.225-3.162.225-4.773a53.063,53.063,0,0,0-12.374-34.108A53.293,53.293,0,0,0,158,0Z" transform="translate(-26.406)"/><path class="f" d="M127.728,216.429h-58.5A103.418,103.418,0,0,0,99.175,188.3l28.552,28.129ZM88.381,177.666l-28.3-27.885a49.2,49.2,0,0,1-44.573,28.486H0v38.447H15.512a87.573,87.573,0,0,0,72.869-39.048Z" transform="translate(0 -41.552)"/></svg>