<svg xmlns="http://www.w3.org/2000/svg" viewBox="0 0 160.484 188.832"><defs><style>.a{fill:#d4d3ea;}.b{fill:#fff;stroke:#9584f5;stroke-miterlimit:10;stroke-width:5px;}</style></defs><g transform="translate(-1483.688 -2928.5)"><path class="a" d="M.859,40.534V24.9H154.625V75.411H0Z" transform="translate(1485.328 2948.021)"/><path class="a" d="M1.859,73.606V57.8H155.625v50.683H1Z" transform="translate(1486.047 2971.645)"/><path class="b" d="M155.625,21.976V46.028a6.894,6.894,0,0,1-.515,2.577c-4.639,10.652-37.282,18.9-76.8,18.9s-72.158-8.247-76.8-18.9A6.894,6.894,0,0,1,1,46.028V21.117C2.546,9.606,36.564.5,78.313.5s75.594,9.106,77.313,20.617Z" transform="translate(1486.047 2930.5)"/><path class="b" d="M155.125,39V76.11h0a9.728,9.728,0,0,1-.515,3.092c-4.639,10.652-37.282,18.9-76.8,18.9S5.654,89.854,1.015,79.2A9.729,9.729,0,0,1,.5,76.11h0V39c0,4.467,4.982,8.59,13.229,11.855,7.044,2.921,16.322,5.154,27.317,6.872A242.045,242.045,0,0,0,77.813,60.3a242.045,242.045,0,0,0,36.766-2.577c11-1.718,20.273-3.952,27.317-6.872,8.247-3.264,13.057-7.388,13.229-11.855" transform="translate(1485.688 2958.145)"/><path class="b" d="M155.625,73.1v37.11h0a9.729,9.729,0,0,1-.515,3.092c-4.639,10.652-37.282,18.9-76.8,18.9s-72.158-8.247-76.8-18.9A9.728,9.728,0,0,1,1,110.21H1V73.1c0,4.467,4.982,8.59,13.229,11.855,7.044,2.921,16.322,5.154,27.317,6.872h0A242.044,242.044,0,0,0,78.313,94.4a242.046,242.046,0,0,0,36.766-2.577h0c11-1.718,20.273-3.952,27.317-6.872C150.643,81.518,155.453,77.4,155.625,73.1Z" transform="translate(1486.047 2982.631)"/></g></svg>