<svg xmlns="http://www.w3.org/2000/svg" viewBox="0 0 144.125 140.332"><defs><style>.a{fill:#24292e;}</style></defs><g transform="translate(0.11 0.036)"><path class="a" d="M58.8,98.9a17.436,17.436,0,0,0-4.5,9.1,1.6,1.6,0,0,1-.7.9c-4.5,1.9-9,2.4-13.6.4a14.391,14.391,0,0,1-6.6-6.3,14.7,14.7,0,0,0-10.2-7.6,13.684,13.684,0,0,0-3.5-.1c-1.2.2-1.5,1.1-.7,2a9.575,9.575,0,0,0,2.3,2.2,14.815,14.815,0,0,1,5.8,6.1,23.836,23.836,0,0,1,2.3,4.5c1.7,4.8,5.3,7.4,10,8.6a36.1,36.1,0,0,0,13.5.4c.3,0,.6-.1,1-.1,0,.4.1.7.1,1v16.2c0,3.2-2.3,4.8-5.3,3.8a70.057,70.057,0,0,1-24.3-14.2,71.644,71.644,0,0,1-23-40.3C-2.3,66.1.7,47.9,11.5,31.2A65.7,65.7,0,0,1,44.4,4.9,74.508,74.508,0,0,1,80.3.5a71.912,71.912,0,0,1,35.6,14c14.7,11.1,24,25.7,27,43.9,3.8,23.4-2.1,44.4-17.9,62.3a67.3,67.3,0,0,1-28.9,19.1,4.783,4.783,0,0,1-4.5-.4,3.585,3.585,0,0,1-1.3-3.1V112.1c0-4.9-1.1-9.4-4.7-13.2,2.1-.3,4-.4,5.8-.8a117.545,117.545,0,0,0,11.7-2.9c7.1-2.5,11.7-7.7,13.8-15a42.617,42.617,0,0,0,1.4-18.1,21.319,21.319,0,0,0-5.7-10.9,3.131,3.131,0,0,1-.8-3.3,27.8,27.8,0,0,0-1-17.1,1.385,1.385,0,0,0-1.5-1,18.92,18.92,0,0,0-9,2.4c-3.1,1.6-6.1,3.4-9.2,5.1a3.049,3.049,0,0,1-1.6.3A69.078,69.078,0,0,0,62.7,36a63.827,63.827,0,0,0-7.6,1.5,2.491,2.491,0,0,1-2.2-.4c-4.7-3-9.5-5.9-15-7.2a1.421,1.421,0,0,1-.6-.2c-3-.5-3.5-.2-4.4,2.7a27.011,27.011,0,0,0-.1,16.4c.3.9-.2,1.2-.6,1.7-2.8,3.1-5,6.6-5.5,10.9a52.634,52.634,0,0,0-.3,8.9,40.089,40.089,0,0,0,2,11.3c2.8,7.9,8.4,12.7,16.4,14.7,4.1,1,8.3,1.5,12.5,2.3A6.641,6.641,0,0,0,58.8,98.9Z"/><path class="a" d="M40.9,113.5c-.7-.6-1.2-1.1-1.7-1.6.5-.3,1-.9,1.4-.8a6.1,6.1,0,0,1,1.6,1.2C41.8,112.7,41.4,113,40.9,113.5Z"/><path class="a" d="M46.5,114.5A21.108,21.108,0,0,0,45,113c.5-.3,1-.9,1.5-.9s1,.5,1.5.9A20.576,20.576,0,0,1,46.5,114.5Z"/><path class="a" d="M34.9,107.8c1.1,0,2.1.9,1.9,1.7a2.013,2.013,0,0,1-.8.8,12.878,12.878,0,0,1-1.7-1.6A3.473,3.473,0,0,1,34.9,107.8Z"/><path class="a" d="M52,113.8c-.6-.6-1.2-.9-1.2-1.3a1.282,1.282,0,0,1,1.6-1.2,3.528,3.528,0,0,1,1.3.8C53.1,112.6,52.7,113.1,52,113.8Z"/><path class="a" d="M33.5,105.3c-.6.4-.9.8-1.2.8a1.477,1.477,0,0,1-1.4-1.6c0-.3.7-.9.7-.8A8.975,8.975,0,0,1,33.5,105.3Z"/><path class="a" d="M30.5,101.2c-.7.4-1.1.8-1.2.7a3.447,3.447,0,0,1-1.2-1.2c0-.1.6-.8.7-.7A10.985,10.985,0,0,1,30.5,101.2Z"/><path class="a" d="M25.9,97.2a12.036,12.036,0,0,0,1,1.1c-.2.2-.6.6-.7.6a7.632,7.632,0,0,1-1.1-.8A5.74,5.74,0,0,1,25.9,97.2Z"/></g></svg>