<svg xmlns="http://www.w3.org/2000/svg" viewBox="0 0 162.094 183.832"><defs><style>.a{fill:#e44d26;}.b{fill:#f16529;}.c{fill:#ebebeb;}.d{fill:#fff;}</style></defs><path class="a" d="M236.727,100.62,221.959,266.05l-66.379,18.4-66.2-18.377L74.633,100.62Z" transform="translate(-74.633 -100.62)"/><path class="b" d="M256,287.132l53.637-14.87,12.62-141.367H256Z" transform="translate(-174.953 -117.366)"/><path class="c" d="M164.309,196.6h28.707V176.3H142.132l.486,5.444,4.987,55.92h45.411V217.377H166.164Z" transform="translate(-111.969 -142.484)"/><path class="c" d="M176.779,336.333h-20.37l2.843,31.862,41.567,11.539.093-.026V358.6l-.089.024-22.6-6.1Z" transform="translate(-119.866 -231.001)"/><path class="d" d="M255.843,288.509h24.988l-2.355,26.318-22.632,6.109v21.112l41.6-11.53.305-3.428,4.769-53.423.5-5.449H255.843Z" transform="translate(-174.866 -193.323)"/><path class="d" d="M255.843,196.548v.05h49.016l.407-4.561.925-10.287.485-5.444H255.843v20.243Z" transform="translate(-174.866 -142.484)"/></svg>