<svg xmlns="http://www.w3.org/2000/svg" viewBox="0 0 184.922 184.922"><defs><style>.a{fill:#f7df1e;}</style></defs><rect class="a" width="184.922" height="184.922"/><path d="M241.41,346.445c3.725,6.082,8.571,10.552,17.142,10.552,7.2,0,11.8-3.6,11.8-8.571,0-5.959-4.726-8.069-12.651-11.536l-4.344-1.864c-12.539-5.342-20.87-12.035-20.87-26.183,0-13.033,9.93-22.954,25.449-22.954,11.048,0,18.991,3.845,24.715,13.913l-13.532,8.688c-2.979-5.342-6.193-7.447-11.183-7.447-5.09,0-8.316,3.229-8.316,7.447,0,5.213,3.229,7.323,10.684,10.552l4.344,1.861c14.764,6.331,23.1,12.786,23.1,27.3,0,15.645-12.29,24.216-28.795,24.216-16.138,0-26.564-7.69-31.666-17.77Zm-61.385,1.506c2.73,4.843,5.213,8.938,11.183,8.938,5.709,0,9.311-2.234,9.311-10.919V286.882H217.9V346.2c0,17.993-10.549,26.183-25.948,26.183-13.913,0-21.97-7.2-26.068-15.872Z" transform="translate(-117.19 -201.974)"/></svg>