<svg xmlns="http://www.w3.org/2000/svg" viewBox="0 0 162.946 183.61"><defs><style>.a{fill:#539e43;}</style></defs><path class="a" d="M81.473,183.61a14.792,14.792,0,0,1-7.084-1.855L51.954,168.429c-3.374-1.855-1.687-2.53-.675-2.867A40.845,40.845,0,0,0,61.4,161.006a1.552,1.552,0,0,1,1.687.169l17.206,10.29a2.144,2.144,0,0,0,2.024,0l67.3-38.965a1.938,1.938,0,0,0,1.012-1.855V52.882a1.938,1.938,0,0,0-1.012-1.855l-67.3-38.8a2.143,2.143,0,0,0-2.024,0l-67.3,38.8a2.117,2.117,0,0,0-1.012,1.855v77.763a2.116,2.116,0,0,0,1.012,1.855l18.386,10.627c9.952,5.061,16.193-.843,16.193-6.747V59.629A2.051,2.051,0,0,1,49.592,57.6h8.6a2.051,2.051,0,0,1,2.024,2.024v76.75c0,13.326-7.253,21.085-19.9,21.085-3.88,0-6.916,0-15.519-4.217L7.085,143.126A14.235,14.235,0,0,1,0,130.813V53.05A14.236,14.236,0,0,1,7.085,40.737l67.3-38.965a15.054,15.054,0,0,1,14.169,0l67.3,38.965a14.236,14.236,0,0,1,7.084,12.314v77.763a14.235,14.235,0,0,1-7.084,12.313l-67.3,38.966a17.264,17.264,0,0,1-7.084,1.518Zm20.748-53.473c-29.519,0-35.592-13.494-35.592-24.965a2.051,2.051,0,0,1,2.024-2.024h8.772a1.734,1.734,0,0,1,1.855,1.687c1.349,8.94,5.229,13.326,23.109,13.326,14.169,0,20.242-3.2,20.242-10.8,0-4.386-1.687-7.59-23.784-9.784C80.461,95.727,68.991,91.678,68.991,77c0-13.663,11.471-21.76,30.7-21.76,21.591,0,32.218,7.422,33.568,23.615a2.721,2.721,0,0,1-.506,1.518,2.082,2.082,0,0,1-1.349.675h-8.771a1.976,1.976,0,0,1-1.856-1.518c-2.024-9.277-7.253-12.313-21.085-12.313-15.519,0-17.374,5.4-17.374,9.446,0,4.892,2.193,6.41,23.109,9.109,20.748,2.7,30.531,6.578,30.531,21.085-.169,14.844-12.313,23.278-33.736,23.278Z" transform="translate(0 0)"/></svg>