<svg xmlns="http://www.w3.org/2000/svg" viewBox="0 0 212.783 191.31"><defs><style>.a{fill:#fff;}.b{fill:#53c1de;}</style></defs><path class="a" d="M.754,96.1c0,16.07,15.691,31.071,40.43,39.527-4.94,24.869-.885,44.915,12.658,52.725,13.921,8.028,34.66,2.471,54.344-14.735,19.188,16.511,38.58,23.01,52.111,15.177,13.907-8.051,18.137-29.456,13.061-55.1,25.767-8.519,40.18-21.31,40.18-37.592,0-15.7-15.72-29.276-40.126-37.678,5.465-26.706.835-46.265-13.27-54.4-13.6-7.841-33.215-1.007-52.685,15.937C87.2,1.972,67.779-3.519,53.689,4.638,40.1,12.5,36.228,32.911,41.184,58.241,17.281,66.575.754,80.462.754,96.1Z" transform="translate(-0.754 -0.785)"/><path class="b" d="M170.615,69.008q-2.94-1.012-6.083-1.917.516-2.1.94-4.149c4.6-22.353,1.594-40.36-8.688-46.289-9.858-5.685-25.98.243-42.263,14.413q-2.348,2.044-4.705,4.317-1.569-1.5-3.131-2.892C89.62,17.34,72.515,10.955,62.244,16.9c-9.849,5.7-12.765,22.63-8.62,43.814q.6,3.069,1.4,6.26c-2.421.687-4.758,1.42-6.994,2.2C28.02,76.149,15.243,87.081,15.243,98.42c0,11.712,13.716,23.458,34.555,30.581q2.467.843,5.109,1.6-.856,3.446-1.484,6.746c-3.952,20.816-.866,37.344,8.957,43.01,10.146,5.85,27.173-.163,43.754-14.656q1.966-1.719,3.943-3.635,2.562,2.468,5.108,4.661c16.061,13.82,31.922,19.4,41.736,13.72,10.135-5.868,13.43-23.623,9.153-45.226q-.489-2.475-1.133-5.051,1.794-.531,3.514-1.1c21.664-7.177,35.758-18.781,35.758-30.649,0-11.38-13.189-22.385-33.6-29.411Z" transform="translate(-3.126 -3.032)"/><path class="a" d="M167.5,122.983c-1.033.342-2.093.672-3.174.993a189.346,189.346,0,0,0-9.569-23.94,189.422,189.422,0,0,0,9.2-23.59c1.933.559,3.809,1.149,5.618,1.772,17.487,6.02,28.154,14.921,28.154,21.778,0,7.305-11.52,16.789-30.225,22.987Zm-7.761,15.379c1.891,9.552,2.161,18.189.908,24.941-1.126,6.067-3.389,10.111-6.187,11.731-5.955,3.447-18.691-1.034-32.426-12.852q-2.362-2.032-4.752-4.333a189.626,189.626,0,0,0,15.841-20.113,188.455,188.455,0,0,0,25.593-3.945q.578,2.332,1.023,4.571ZM81.247,174.438c-5.818,2.055-10.453,2.113-13.254.5-5.961-3.438-8.439-16.709-5.059-34.511q.581-3.058,1.379-6.274a189.868,189.868,0,0,0,25.466,3.686A196.556,196.556,0,0,0,106,157.88q-1.808,1.745-3.6,3.315c-7.332,6.41-14.679,10.956-21.154,13.243Zm-27.259-51.5c-9.214-3.15-16.824-7.242-22.04-11.709-4.687-4.013-7.053-8-7.053-11.233,0-6.88,10.259-15.657,27.369-21.623,2.076-.724,4.249-1.406,6.5-2.047a193.5,193.5,0,0,0,9.21,23.866A196.717,196.717,0,0,0,58.653,124.4q-2.412-.692-4.664-1.46Zm9.137-62.2c-3.551-18.15-1.193-31.841,4.742-35.277,6.322-3.66,20.3,1.558,35.036,14.641q1.413,1.254,2.836,2.617a193.439,193.439,0,0,0-16.1,19.921,197.3,197.3,0,0,0-25.217,3.919q-.738-2.967-1.3-5.822Zm81.514,20.128q-2.8-4.845-5.746-9.451c6.029.762,11.806,1.774,17.231,3.012A172.159,172.159,0,0,1,150.076,90.7q-2.57-4.882-5.436-9.834ZM111.4,48.492a172.721,172.721,0,0,1,11.12,13.425q-5.545-.262-11.211-.265-5.6,0-11.124.26c3.671-4.841,7.432-9.339,11.214-13.42ZM77.945,80.924q-2.8,4.858-5.334,9.772c-2.351-5.576-4.362-11.058-6-16.352C72,73.138,77.746,72.152,83.737,71.4q-2.977,4.643-5.793,9.52Zm5.965,48.241a171.859,171.859,0,0,1-17.416-2.8c1.669-5.388,3.725-10.988,6.125-16.683q2.537,4.9,5.357,9.778h0q2.871,4.96,5.933,9.7Zm27.712,22.906c-3.826-4.129-7.642-8.7-11.37-13.607q5.427.213,11.056.214,5.778,0,11.407-.253a171.817,171.817,0,0,1-11.094,13.646Zm38.531-42.679a171.223,171.223,0,0,1,6.346,16.623,171.327,171.327,0,0,1-17.628,3q2.943-4.663,5.8-9.616,2.887-5.007,5.48-10.012Zm-12.474,5.98c-2.954,5.122-5.986,10.012-9.065,14.626-5.608.4-11.4.608-17.306.608-5.88,0-11.6-.183-17.109-.54-3.2-4.676-6.3-9.58-9.236-14.65h0c-2.927-5.056-5.622-10.155-8.063-15.226C79.341,95.108,82.028,90,84.939,84.956h0c2.918-5.061,5.99-9.941,9.163-14.587,5.62-.425,11.383-.646,17.207-.646h0c5.851,0,11.621.223,17.239.652,3.125,4.613,6.175,9.477,9.1,14.538,2.963,5.118,5.685,10.188,8.147,15.162-2.454,5.059-5.169,10.18-8.12,15.3Zm16.654-90.148c6.328,3.649,8.789,18.367,4.813,37.666-.253,1.231-.539,2.486-.85,3.757a193.348,193.348,0,0,0-25.267-3.991,189.565,189.565,0,0,0-15.974-19.936q2.179-2.1,4.346-3.986c13.951-12.141,26.99-16.935,32.932-13.509Z" transform="translate(-4.706 -4.608)"/><path class="b" d="M124.918,94.665a16.875,16.875,0,1,1-16.874,16.874,16.874,16.874,0,0,1,16.874-16.874" transform="translate(-18.316 -16.151)"/></svg>