<svg xmlns="http://www.w3.org/2000/svg" viewBox="0 0 100 75.234"><defs><style>.a{fill:#ededed;}.b{fill:#127c12;}</style></defs><g transform="translate(-349 -476)"><path class="a" d="M29.447,157.1l-3.025,4.778H4.9L8.494,157.1Z" transform="translate(346.263 387.778)"/><path class="a" d="M191.791,161.878H170.268L167.2,157.1h21Z" transform="translate(255.105 387.778)"/><path class="b" d="M99.66,72.658,52.188,9.186l5.085-6.663A1.613,1.613,0,0,0,54.73.551L49.952,6.776,45.174.595a1.6,1.6,0,0,0-2.542,1.929L47.76,9.186.288,72.658a1.6,1.6,0,0,0,.307,2.236,1.494,1.494,0,0,0,.964.307H98.389a1.6,1.6,0,0,0,1.271-2.542ZM23.082,55.387,44.034,38.95,25.58,67.793ZM50,35.531,73.316,72H58.938a14.67,14.67,0,0,0-.526-13.983,1.552,1.552,0,0,0-2.148-.614,1.6,1.6,0,0,0-.789,1.052,13.155,13.155,0,0,1-2.192,4.778c.088-.877.132-1.8.132-2.718a10.37,10.37,0,0,0-7.1-9.468,1.588,1.588,0,0,0-2.06.921,1.3,1.3,0,0,0-.088.57,14.032,14.032,0,0,1-2.279,7.671,14.677,14.677,0,0,0-2.323,6.4,11.533,11.533,0,0,0,.7,5.435H26.632ZM74.411,67.836,55.957,38.994,76.822,55.431ZM43.859,72.044a7.447,7.447,0,0,1-1.14-5.172,12.019,12.019,0,0,1,1.929-5.085,18.133,18.133,0,0,0,2.542-6.663,6.581,6.581,0,0,1,3.068,5.435,26.251,26.251,0,0,1-.219,4.164c-.175,1.1-.351,2.148.614,2.849a2.374,2.374,0,0,0,2.411,0,9.624,9.624,0,0,0,4.164-4.3A10.639,10.639,0,0,1,55.3,72.044H43.859Zm32.963,0L80.11,55.037a1.532,1.532,0,0,0-.57-1.578L50.96,31.016a1.644,1.644,0,0,0-1.973,0L20.408,53.459a1.592,1.592,0,0,0-.57,1.578L23.126,72H4.759L50,11.553,95.189,72H76.822Z" transform="translate(349.033 476.033)"/></g></svg>